<?xml version="1.0" encoding="UTF-8" standalone="no"?>
<svg
   xmlns:osb="http://www.openswatchbook.org/uri/2009/osb"
   xmlns:dc="http://purl.org/dc/elements/1.1/"
   xmlns:cc="http://creativecommons.org/ns#"
   xmlns:rdf="http://www.w3.org/1999/02/22-rdf-syntax-ns#"
   xmlns:svg="http://www.w3.org/2000/svg"
   xmlns="http://www.w3.org/2000/svg"
   xmlns:sodipodi="http://sodipodi.sourceforge.net/DTD/sodipodi-0.dtd"
   xmlns:inkscape="http://www.inkscape.org/namespaces/inkscape"
   viewBox="0 0 300 300"
   height="300"
   width="300"
   id="svg64"
   version="1.1"
   sodipodi:docname="nvidia-ram-symbolic.svg"
   inkscape:version="0.92.1 r15371">
  <sodipodi:namedview
     pagecolor="#ffffff"
     bordercolor="#666666"
     borderopacity="1"
     objecttolerance="10"
     gridtolerance="10"
     guidetolerance="10"
     inkscape:pageopacity="0"
     inkscape:pageshadow="2"
     inkscape:window-width="1920"
     inkscape:window-height="1016"
     id="namedview6"
     showgrid="false"
     inkscape:zoom="2.0533717"
     inkscape:cx="194.86882"
     inkscape:cy="167.95745"
     inkscape:window-x="0"
     inkscape:window-y="27"
     inkscape:window-maximized="1"
     inkscape:current-layer="svg64"
     showguides="false" />
  <metadata
     id="metadata70">
    <rdf:RDF>
      <cc:Work
         rdf:about="">
        <dc:format>image/svg+xml</dc:format>
        <dc:type
           rdf:resource="http://purl.org/dc/dcmitype/StillImage" />
        <dc:title></dc:title>
      </cc:Work>
    </rdf:RDF>
  </metadata>
  <defs
     id="defs68">
    <linearGradient
       id="linearGradient5958"
       osb:paint="solid">
      <stop
         style="stop-color:#ffffff;stop-opacity:1;"
         offset="0"
         id="stop5956" />
    </linearGradient>
  </defs>
  <path
     style="fill:#000000;stroke-width:2.49902415"
     d="m 15.245909,235.70079 c -1.707119,-1.76311 -2.950821,-10.21042 -2.950821,-20.04214 0,-16.00942 -0.35635,-17.08689 -6.1475425,-18.58806 L 0,195.47704 V 129.76539 C 0,72.187801 0.4814755,63.862921 3.8896425,62.512181 c 5.081582,-2.01395 287.1391175,-2.01395 292.2206875,0 3.40819,1.35074 3.88967,9.67562 3.88967,67.253209 v 65.71165 l -6.14755,1.59355 c -5.7912,1.50117 -6.14754,2.57864 -6.14754,18.58806 0,9.83172 -1.2437,18.27903 -2.95083,20.04214 -4.25662,4.39628 -265.251537,4.39628 -269.508171,0 z m 24.098358,-20.80764 c 0,-9.10783 4.791085,-13.35521 9.536421,-8.45421 1.517261,1.56703 2.758658,6.04915 2.758658,9.96027 0,5.89206 1.053864,7.11111 6.147542,7.11111 5.133125,0 6.14754,-1.20592 6.14754,-7.30808 0,-4.01944 1.659835,-8.73081 3.688524,-10.4697 5.231015,-4.48378 11.065575,1.0366 11.065575,10.4697 0,6.10216 1.014413,7.30808 6.147538,7.30808 5.093674,0 6.147536,-1.21905 6.147536,-7.11111 0,-3.91112 1.241409,-8.39324 2.758653,-9.96027 4.74534,-4.901 9.536406,-0.65362 9.536406,8.45421 0,7.88151 0.62979,8.61717 7.37706,8.61717 6.74725,0 7.37704,-0.73566 7.37704,-8.61717 0,-9.10783 4.7911,-13.35521 9.53644,-8.45421 1.51725,1.56703 2.75866,6.04915 2.75866,9.96027 0,5.89206 1.05385,7.11111 6.14754,7.11111 5.13313,0 6.14754,-1.20592 6.14754,-7.30808 0,-4.01944 1.65982,-8.73081 3.68853,-10.4697 5.231,-4.48378 11.06556,1.0366 11.06556,10.4697 0,6.10216 1.01442,7.30808 6.14754,7.30808 5.09368,0 6.14755,-1.21905 6.14755,-7.11111 0,-3.91112 1.2414,-8.39324 2.75864,-9.96027 4.74536,-4.901 9.53643,-0.65362 9.53643,8.45421 0,7.88151 0.62979,8.61717 7.37705,8.61717 6.74725,0 7.37704,-0.73566 7.37704,-8.61717 0,-9.10783 4.7911,-13.35521 9.53644,-8.45421 1.51726,1.56703 2.75866,6.04915 2.75866,9.96027 0,5.89206 1.05384,7.11111 6.14755,7.11111 5.13312,0 6.14753,-1.20592 6.14753,-7.30808 0,-9.4331 5.83455,-14.95348 11.06557,-10.4697 2.02869,1.73889 3.68854,6.45026 3.68854,10.4697 0,6.10216 1.0144,7.30808 6.14753,7.30808 5.09368,0 6.14754,-1.21905 6.14754,-7.11111 0,-3.91112 1.2414,-8.39324 2.75868,-9.96027 4.74533,-4.901 9.5364,-0.65362 9.5364,8.45421 0,7.88151 0.62978,8.61717 7.37704,8.61717 7.21312,0 7.37706,-0.28219 7.37706,-12.69842 V 198.11349 H 149.99999 24.590166 v 12.69841 c 0,12.41623 0.163942,12.69842 7.377052,12.69842 6.747259,0 7.377049,-0.73566 7.377049,-8.61717 z M 287.70491,129.54206 V 76.208721 H 149.99999 12.295088 v 53.333339 53.33333 H 149.99999 287.70491 Z"
     id="path8"
     inkscape:connector-curvature="0"
     sodipodi:nodetypes="csccssssccsccscssscssssssscssscssscssscssscssscssscccsssccccccccc" />
  <rect
     id="rect4496"
     width="266.40732"
     height="93.666939"
     x="19.620949"
     y="92.602249"
     style="fill:none;fill-opacity:0;stroke-width:0.98399061" />
  <rect
     style="fill:none;fill-opacity:0;stroke-width:0.98399061"
     id="rect5962"
     width="67.018608"
     height="88.15712"
     x="19.620949"
     y="92.602249" />
  <rect
     style="fill:#0000e9;fill-opacity:0;stroke-width:0.98399061"
     id="rect5966"
     width="261.40594"
     height="92.633842"
     x="19.620949"
     y="92.602249" />
  <path
     id="rect5968"
     style="fill:#0000e9;fill-opacity:0;stroke-width:0.98399061"
     d="M 19.621278,92.602782 V 185.5813 H 277.02498 V 92.602782 Z m 13.691485,4.148437 c 0.469206,-0.02241 0.944531,0.05094 1.50909,0.357422 0.432254,0.234656 0.616463,0.782689 0.924742,1.173829 0.07292,0.37058 0.177029,0.73549 0.217476,1.11133 0.03234,0.30047 -0.0073,0.60103 -0.03594,0.90039 0.189765,0.0275 0.380035,0.0608 0.567324,0.0703 -0.110023,0.30666 -0.176802,0.48686 -0.253404,0.68359 0.01952,0.018 0.04318,0.0304 0.06241,0.0488 0.228897,0.2196 -0.03225,0.64712 -0.09645,0.96289 -0.01702,0.0838 -0.03852,0.15594 -0.05673,0.23633 0.01593,0.20307 0.01975,0.41656 -0.0038,0.68945 -0.05945,0.689 -0.287151,1.11875 -0.518158,1.75196 -0.880391,2.41322 -0.0014,0.12812 -1.077922,2.85937 -0.496061,0.96113 -1.173503,2.55079 -2.135038,3.65821 -0.05792,0.22458 -0.146598,0.35481 -0.285556,0.33203 -0.67995,0.66338 -1.495406,1.05624 -2.484889,0.83789 -0.60919,-0.13444 -0.833349,-0.53405 -0.871794,-1.01563 -1.124092,1.60415 -1.493184,2.28798 -3.101386,3.70117 -1.308182,1.14957 -2.166904,2.1372 -3.984524,0.9043 -0.445299,-0.30205 -0.447479,-0.9968 -0.671337,-1.49609 0.05332,-1.37093 -8.6e-4,-1.95573 0.540852,-3.41406 0.181495,-0.48857 1.762942,-2.96465 1.94593,-3.33204 0.210485,-0.42259 0.390327,-0.85247 0.559764,-1.28515 -0.067,-0.0675 -0.03472,-0.0381 -0.160744,-0.16602 -0.301677,-0.32964 -0.641998,-0.62615 -0.903941,-0.99023 -0.565502,-0.78601 -0.534958,-1.66061 -0.822622,-2.50586 0.256627,-0.74857 0.542774,-1.48736 0.769673,-2.2461 0.252304,-0.18643 -0.373779,0.21797 1.019295,-0.91992 1.740916,-1.422 1.434288,-1.1107 3.562814,-2.128904 0.630802,-0.122635 1.254484,-0.282361 1.891088,-0.367187 0.428475,-0.05709 0.863759,-0.03771 1.295397,-0.05664 0.374861,-0.04547 0.751339,-0.08315 1.125197,-0.136719 0.540466,-0.07743 1.003953,-0.196338 1.473158,-0.21875 z m -0.781019,2.447261 c -0.294755,0.22355 -0.124478,0.3933 0.107793,0.54493 0.0032,-0.15487 0.01045,-0.31051 -0.0076,-0.46289 -0.0052,-0.044 -0.06675,-0.0543 -0.100227,-0.082 z m 0.07941,1.16016 c -0.06993,-8.5e-4 -0.141752,-0.006 -0.204238,0.004 -0.430658,0.0653 -0.865181,0.10801 -1.297286,0.16211 -0.512518,0.0258 -1.028381,0.0116 -1.537456,0.0781 -0.472159,0.0617 -0.930046,0.20472 -1.395625,0.30664 -0.206073,0.0818 -0.392554,0.19015 -0.580564,0.29688 0.785142,0.26062 1.306783,1.3089 0.790476,2.91015 -0.189945,0.5891 -0.372708,1.16148 -0.557871,1.73633 0.123733,0.29439 0.184718,0.5745 0.191,0.83399 0.02072,-0.0287 0.0417,-0.0572 0.0624,-0.0859 1.328418,-1.88947 2.599669,-3.82264 4.077189,-5.59375 0.125039,-0.14988 0.285317,-0.31471 0.438733,-0.47461 0.0046,-0.058 0.0083,-0.1158 0.01323,-0.17383 z"
     inkscape:connector-curvature="0" />
  <path
     style="fill:#0000e9;fill-opacity:0;stroke-width:0.33885074"
     d="m 44.595723,180.06299 c -10.967304,-0.46076 -15.057745,-1.24038 -16.42271,-3.1301 -0.321739,-0.44543 -0.799577,-1.89461 -1.061862,-3.22041 -2.421959,-12.24252 -2.421959,-55.59715 0,-67.83966 0.591666,-2.99076 1.195917,-3.8483 3.313971,-4.70313 5.694144,-2.2981 36.438939,-2.4588 43.011944,-0.22481 3.496065,1.18822 3.812869,1.83271 4.661114,9.48232 1.95629,17.64214 1.366387,56.58762 -0.979892,64.69235 -0.625397,2.16029 -1.144763,2.6565 -3.681222,3.51706 -3.500639,1.18768 -17.749488,1.89238 -28.841343,1.42638 z m 20.005555,-40.23018 v -27.8533 l -0.750206,-0.20764 c -0.978679,-0.27088 -22.194425,-0.27088 -23.173103,0 l -0.750208,0.20764 v 27.8533 27.8533 h 12.336758 12.336759 z"
     id="path6039"
     inkscape:connector-curvature="0" />
  <path
     style="fill:#0000e9;fill-opacity:0;stroke-width:0.33885074"
     d="m 44.595723,180.06299 c -10.967304,-0.46076 -15.057745,-1.24038 -16.42271,-3.1301 -0.321739,-0.44543 -0.799577,-1.89461 -1.061862,-3.22041 -2.421959,-12.24252 -2.421959,-55.59715 0,-67.83966 0.591666,-2.99076 1.195917,-3.8483 3.313971,-4.70313 5.694144,-2.2981 36.438939,-2.4588 43.011944,-0.22481 3.496065,1.18822 3.812869,1.83271 4.661114,9.48232 1.95629,17.64214 1.366387,56.58762 -0.979892,64.69235 -0.625397,2.16029 -1.144763,2.6565 -3.681222,3.51706 -3.500639,1.18768 -17.749488,1.89238 -28.841343,1.42638 z m 20.005555,-40.23018 v -27.8533 l -0.750206,-0.20764 c -0.978679,-0.27088 -22.194425,-0.27088 -23.173103,0 l -0.750208,0.20764 v 27.8533 27.8533 h 12.336758 12.336759 z"
     id="path6041"
     inkscape:connector-curvature="0" />
  <path
     style="fill:#0000e9;fill-opacity:0;stroke-width:0.33885074"
     d="m 44.595723,180.06299 c -10.967304,-0.46076 -15.057745,-1.24038 -16.42271,-3.1301 -0.321739,-0.44543 -0.799577,-1.89461 -1.061862,-3.22041 -2.421959,-12.24252 -2.421959,-55.59715 0,-67.83966 0.591666,-2.99076 1.195917,-3.8483 3.313971,-4.70313 5.694144,-2.2981 36.438939,-2.4588 43.011944,-0.22481 3.496065,1.18822 3.812869,1.83271 4.661114,9.48232 1.95629,17.64214 1.366387,56.58762 -0.979892,64.69235 -0.625397,2.16029 -1.144763,2.6565 -3.681222,3.51706 -3.500639,1.18768 -17.749488,1.89238 -28.841343,1.42638 z m 20.005555,-40.23018 v -27.8533 l -0.750206,-0.20764 c -0.978679,-0.27088 -22.194425,-0.27088 -23.173103,0 l -0.750208,0.20764 v 27.8533 27.8533 h 12.336758 12.336759 z"
     id="path6043"
     inkscape:connector-curvature="0" />
  <path
     style="fill:#0000e9;fill-opacity:0;stroke-width:0.33885074"
     d="m 44.595723,180.06299 c -10.967304,-0.46076 -15.057745,-1.24038 -16.42271,-3.1301 -0.321739,-0.44543 -0.799577,-1.89461 -1.061862,-3.22041 -2.421959,-12.24252 -2.421959,-55.59715 0,-67.83966 0.591666,-2.99076 1.195917,-3.8483 3.313971,-4.70313 5.694144,-2.2981 36.438939,-2.4588 43.011944,-0.22481 3.496065,1.18822 3.812869,1.83271 4.661114,9.48232 1.95629,17.64214 1.366387,56.58762 -0.979892,64.69235 -0.625397,2.16029 -1.144763,2.6565 -3.681222,3.51706 -3.500639,1.18768 -17.749488,1.89238 -28.841343,1.42638 z m 20.005555,-40.23018 v -27.8533 l -0.750206,-0.20764 c -0.978679,-0.27088 -22.194425,-0.27088 -23.173103,0 l -0.750208,0.20764 v 27.8533 27.8533 h 12.336758 12.336759 z"
     id="path6045"
     inkscape:connector-curvature="0" />
</svg>
