<?xml version="1.0" encoding="UTF-8" standalone="no"?>
<!-- Generator: Adobe Illustrator 17.1.0, SVG Export Plug-In . SVG Version: 6.00 Build 0)  -->

<svg
   xmlns:dc="http://purl.org/dc/elements/1.1/"
   xmlns:cc="http://creativecommons.org/ns#"
   xmlns:rdf="http://www.w3.org/1999/02/22-rdf-syntax-ns#"
   xmlns:svg="http://www.w3.org/2000/svg"
   xmlns="http://www.w3.org/2000/svg"
   xmlns:sodipodi="http://sodipodi.sourceforge.net/DTD/sodipodi-0.dtd"
   xmlns:inkscape="http://www.inkscape.org/namespaces/inkscape"
   version="1.1"
   id="Capa_1"
   x="0px"
   y="0px"
   viewBox="0 0 490 490"
   style="enable-background:new 0 0 490 490;"
   xml:space="preserve"
   sodipodi:docname="nvidia-temp-symbolic.svg"
   inkscape:version="0.92.1 r15371"><metadata
     id="metadata61"><rdf:RDF><cc:Work
         rdf:about=""><dc:format>image/svg+xml</dc:format><dc:type
           rdf:resource="http://purl.org/dc/dcmitype/StillImage" /></cc:Work></rdf:RDF></metadata><defs
     id="defs59" /><sodipodi:namedview
     pagecolor="#ffffff"
     bordercolor="#666666"
     borderopacity="1"
     objecttolerance="10"
     gridtolerance="10"
     guidetolerance="10"
     inkscape:pageopacity="0"
     inkscape:pageshadow="2"
     inkscape:window-width="1920"
     inkscape:window-height="1016"
     id="namedview57"
     showgrid="false"
     inkscape:zoom="1.3622629"
     inkscape:cx="219.74795"
     inkscape:cy="282.13301"
     inkscape:window-x="0"
     inkscape:window-y="27"
     inkscape:window-maximized="1"
     inkscape:current-layer="g24" /><g
     id="g24"><g
       id="g4"><path
         d="M262.096,490c-14.151,0-27.883-2.774-40.818-8.245c-12.487-5.281-23.7-12.841-33.326-22.468    c-9.626-9.626-17.185-20.838-22.468-33.326c-5.47-12.933-8.244-26.666-8.244-40.816c0-16.766,4.058-33.445,11.733-48.233    c6.607-12.729,15.9-24.11,27.054-33.183V49.967C196.028,22.415,218.443,0,245.996,0h32.201c27.552,0,49.968,22.415,49.968,49.967    v253.762c11.154,9.072,20.447,20.453,27.054,33.183c7.676,14.788,11.733,31.468,11.733,48.233c0,14.15-2.773,27.884-8.245,40.816    c-5.282,12.488-12.84,23.7-22.467,33.326c-9.626,9.627-20.839,17.186-33.327,22.468C289.981,487.226,276.248,490,262.096,490z     M245.996,20.578c-16.205,0-29.389,13.184-29.389,29.389V308.78c0,3.281-1.565,6.366-4.213,8.304    c-21.649,15.84-34.574,41.283-34.574,68.06c0,46.47,37.806,84.276,84.277,84.276c46.471,0,84.277-37.807,84.277-84.276    c0-26.777-12.925-52.221-34.575-68.06c-2.648-1.938-4.213-5.023-4.213-8.304V49.967c0-16.205-13.184-29.389-29.389-29.389H245.996    z"
         id="path2" /></g><path
       d="m 283.943,325.025 v -224.65 c 0,-8.918 -7.229,-16.147 -16.146,-16.147 h -11.402 c -8.917,0 -16.146,7.229 -16.146,16.147 v 224.65 c -24.561,8.927 -42.105,32.475 -42.105,60.121 0,35.32 28.632,63.953 63.952,63.953 35.32,0 63.953,-28.633 63.953,-63.953 -10e-4,-27.646 -17.544,-51.194 -42.106,-60.121 z"
       id="path6"
       inkscape:connector-curvature="0"
       sodipodi:nodetypes="csssscsscc" /></g><g
     id="g26" /><g
     id="g28" /><g
     id="g30" /><g
     id="g32" /><g
     id="g34" /><g
     id="g36" /><g
     id="g38" /><g
     id="g40" /><g
     id="g42" /><g
     id="g44" /><g
     id="g46" /><g
     id="g48" /><g
     id="g50" /><g
     id="g52" /><g
     id="g54" /></svg>