<?xml version="1.0" encoding="UTF-8" standalone="no"?>
<svg
   xmlns:osb="http://www.openswatchbook.org/uri/2009/osb"
   xmlns:dc="http://purl.org/dc/elements/1.1/"
   xmlns:cc="http://creativecommons.org/ns#"
   xmlns:rdf="http://www.w3.org/1999/02/22-rdf-syntax-ns#"
   xmlns:svg="http://www.w3.org/2000/svg"
   xmlns="http://www.w3.org/2000/svg"
   xmlns:sodipodi="http://sodipodi.sourceforge.net/DTD/sodipodi-0.dtd"
   xmlns:inkscape="http://www.inkscape.org/namespaces/inkscape"
   viewBox="0 0 325.07938 325.07938"
   height="325.07938"
   width="325.07938"
   id="svg64"
   version="1.1"
   sodipodi:docname="nvidia-ram-symbolic.svg"
   inkscape:version="0.92.1 r15371">
  <sodipodi:namedview
     pagecolor="#ffffff"
     bordercolor="#666666"
     borderopacity="1"
     objecttolerance="10"
     gridtolerance="10"
     guidetolerance="10"
     inkscape:pageopacity="0"
     inkscape:pageshadow="2"
     inkscape:window-width="1920"
     inkscape:window-height="1016"
     id="namedview6"
     showgrid="false"
     inkscape:zoom="2.9039061"
     inkscape:cx="142.53337"
     inkscape:cy="200.26939"
     inkscape:window-x="0"
     inkscape:window-y="27"
     inkscape:window-maximized="1"
     inkscape:current-layer="svg64"
     showguides="false" />
  <metadata
     id="metadata70">
    <rdf:RDF>
      <cc:Work
         rdf:about="">
        <dc:format>image/svg+xml</dc:format>
        <dc:type
           rdf:resource="http://purl.org/dc/dcmitype/StillImage" />
        <dc:title />
      </cc:Work>
    </rdf:RDF>
  </metadata>
  <defs
     id="defs68">
    <linearGradient
       id="linearGradient5958"
       osb:paint="solid">
      <stop
         style="stop-color:#ffffff;stop-opacity:1;"
         offset="0"
         id="stop5956" />
    </linearGradient>
  </defs>
  <path
     style="fill:#000000;stroke-width:2.53968263"
     d="m 22.686177,238.14293 c -1.76312,-1.76311 -3.04762,-10.21042 -3.04762,-20.04214 0,-16.00942 -0.36804,-17.08689 -6.34921,-18.58806 l -6.3492105,-1.59355 v -65.71165 c 0,-57.577589 0.49727,-65.902469 4.0172405,-67.253209 5.24828,-2.01395 296.558523,-2.01395 301.806803,0 3.51998,1.35074 4.01725,9.67562 4.01725,67.253209 v 65.71165 l -6.34921,1.59355 c -5.98118,1.50117 -6.34921,2.57864 -6.34921,18.58806 0,9.83172 -1.28449,18.27903 -3.04762,20.04214 -4.39626,4.39628 -273.952943,4.39628 -278.349213,0 z m 24.888888,-20.80764 c 0,-9.10783 4.948254,-13.35521 9.849257,-8.45421 1.567035,1.56703 2.849156,6.04915 2.849156,9.96027 0,5.89206 1.088434,7.11111 6.349207,7.11111 5.301514,0 6.349206,-1.20592 6.349206,-7.30808 0,-4.01944 1.714286,-8.73081 3.809524,-10.4697 5.402616,-4.48378 11.428572,1.0366 11.428572,10.4697 0,6.10216 1.047693,7.30808 6.349207,7.30808 5.260769,0 6.349206,-1.21905 6.349206,-7.11111 0,-3.91112 1.28212,-8.39324 2.84915,-9.96027 4.901,-4.901 9.84925,-0.65362 9.84925,8.45421 0,7.88151 0.65045,8.61717 7.61905,8.61717 6.9686,0 7.61905,-0.73566 7.61905,-8.61717 0,-9.10783 4.94825,-13.35521 9.84926,-8.45421 1.56703,1.56703 2.84915,6.04915 2.84915,9.96027 0,5.89206 1.08844,7.11111 6.34921,7.11111 5.30151,0 6.34921,-1.20592 6.34921,-7.30808 0,-4.01944 1.71428,-8.73081 3.80952,-10.4697 5.40262,-4.48378 11.42857,1.0366 11.42857,10.4697 0,6.10216 1.0477,7.30808 6.34921,7.30808 5.26077,0 6.34921,-1.21905 6.34921,-7.11111 0,-3.91112 1.28212,-8.39324 2.84915,-9.96027 4.90101,-4.901 9.84926,-0.65362 9.84926,8.45421 0,7.88151 0.65045,8.61717 7.61905,8.61717 6.9686,0 7.61905,-0.73566 7.61905,-8.61717 0,-9.10783 4.94825,-13.35521 9.84925,-8.45421 1.56704,1.56703 2.84916,6.04915 2.84916,9.96027 0,5.89206 1.08843,7.11111 6.34921,7.11111 5.30151,0 6.3492,-1.20592 6.3492,-7.30808 0,-9.4331 6.02596,-14.95348 11.42858,-10.4697 2.09524,1.73889 3.80953,6.45026 3.80953,10.4697 0,6.10216 1.04769,7.30808 6.3492,7.30808 5.26078,0 6.34921,-1.21905 6.34921,-7.11111 0,-3.91112 1.28211,-8.39324 2.84917,-9.96027 4.901,-4.901 9.84924,-0.65362 9.84924,8.45421 0,7.88151 0.65044,8.61717 7.61905,8.61717 7.44973,0 7.61905,-0.28219 7.61905,-12.69842 V 200.55563 H 161.86078 32.336967 v 12.69841 c 0,12.41623 0.16932,12.69842 7.61905,12.69842 6.968599,0 7.619048,-0.73566 7.619048,-8.61717 z M 304.08301,131.9842 V 78.650861 H 161.86078 19.638557 V 131.9842 185.31753 H 161.86078 304.08301 Z"
     id="path8"
     inkscape:connector-curvature="0"
     sodipodi:nodetypes="csccssssccsccscssscssssssscssscssscssscssscssscssscccsssccccccccc" />
  <rect
     id="rect4496"
     width="275.14664"
     height="93.666939"
     x="27.204737"
     y="95.044395"
     style="fill:none;fill-opacity:0" />
  <rect
     style="fill:none;fill-opacity:0"
     id="rect5962"
     width="69.21711"
     height="88.15712"
     x="27.204737"
     y="95.044395" />
  <rect
     style="fill:#0000e9;fill-opacity:0"
     id="rect5966"
     width="269.98117"
     height="92.633842"
     x="27.204737"
     y="95.044395" />
  <path
     id="rect5968"
     style="fill:#0000e9;fill-opacity:0"
     d="M 27.205078,95.044922 V 188.02344 H 293.05273 V 95.044922 Z m 14.140625,4.148437 c 0.484598,-0.02241 0.975515,0.05094 1.558594,0.357422 0.446435,0.234656 0.636685,0.782689 0.955078,1.173829 0.0753,0.37058 0.182836,0.73549 0.224609,1.11133 0.0334,0.30047 -0.0075,0.60103 -0.03711,0.90039 0.195992,0.0275 0.392502,0.0608 0.585937,0.0703 -0.113633,0.30666 -0.182602,0.48686 -0.261718,0.68359 0.02017,0.018 0.0446,0.0304 0.06445,0.0488 0.236406,0.2196 -0.0333,0.64712 -0.09961,0.96289 -0.01759,0.0838 -0.03978,0.15594 -0.05859,0.23633 0.01644,0.20307 0.02041,0.41656 -0.0039,0.68945 -0.0614,0.689 -0.296571,1.11875 -0.535157,1.75196 -0.909272,2.41322 -0.0014,0.12812 -1.113281,2.85937 -0.512336,0.96113 -1.212001,2.55079 -2.205078,3.65821 -0.05982,0.22458 -0.151407,0.35481 -0.294922,0.33203 -0.702257,0.66338 -1.544463,1.05624 -2.566406,0.83789 -0.629174,-0.13444 -0.860685,-0.53405 -0.900391,-1.01563 -1.160968,1.60415 -1.542168,2.28798 -3.203125,3.70117 -1.351097,1.14957 -2.237988,2.1372 -4.115234,0.9043 -0.459908,-0.30205 -0.462158,-0.9968 -0.69336,-1.49609 0.05507,-1.37093 -8.88e-4,-1.95573 0.558594,-3.41406 0.18745,-0.48857 1.820774,-2.96465 2.009766,-3.33204 0.217389,-0.42259 0.40313,-0.85247 0.578125,-1.28515 -0.06919,-0.0675 -0.03585,-0.0381 -0.166016,-0.16602 -0.311575,-0.32964 -0.663059,-0.62615 -0.933594,-0.99023 -0.584053,-0.78601 -0.552508,-1.66061 -0.849609,-2.50586 0.265047,-0.74857 0.560579,-1.48736 0.794922,-2.2461 0.260581,-0.18643 -0.386041,0.21797 1.052734,-0.91992 1.798024,-1.422 1.481338,-1.1107 3.679688,-2.128904 0.651497,-0.122635 1.295636,-0.282361 1.953125,-0.367187 0.442531,-0.05709 0.892094,-0.03771 1.33789,-0.05664 0.387159,-0.04547 0.775987,-0.08315 1.16211,-0.136719 0.558195,-0.07743 1.036886,-0.196338 1.521484,-0.21875 z m -0.806641,2.447261 c -0.304424,0.22355 -0.128561,0.3933 0.111329,0.54493 0.0033,-0.15487 0.01078,-0.31051 -0.0078,-0.46289 -0.0054,-0.044 -0.06893,-0.0543 -0.103516,-0.082 z m 0.08203,1.16016 c -0.07221,-8.5e-4 -0.146401,-0.006 -0.210938,0.004 -0.444786,0.0653 -0.893563,0.10801 -1.339844,0.16211 -0.52933,0.0258 -1.062116,0.0116 -1.58789,0.0781 -0.487649,0.0617 -0.960555,0.20472 -1.441406,0.30664 -0.212834,0.0818 -0.405432,0.19015 -0.59961,0.29688 0.810898,0.26062 1.349652,1.3089 0.816406,2.91015 -0.196176,0.5891 -0.384935,1.16148 -0.576171,1.73633 0.127792,0.29439 0.190777,0.5745 0.197265,0.83399 0.02141,-0.0287 0.04306,-0.0572 0.06445,-0.0859 1.371996,-1.88947 2.68495,-3.82264 4.210938,-5.59375 0.129141,-0.14988 0.294677,-0.31471 0.453125,-0.47461 0.0047,-0.058 0.0086,-0.1158 0.01367,-0.17383 z" />
  <path
     style="fill:#0000e9;fill-opacity:0;stroke-width:0.34436375"
     d="m 52.998793,182.50513 c -11.32708,-0.46076 -15.551705,-1.24038 -16.961447,-3.1301 -0.332293,-0.44543 -0.825806,-1.89461 -1.096696,-3.22041 -2.501409,-12.24252 -2.501409,-55.59715 0,-67.83966 0.611076,-2.99076 1.235148,-3.8483 3.422684,-4.70313 5.880936,-2.2981 37.634295,-2.4588 44.422923,-0.22481 3.610751,1.18822 3.937948,1.83271 4.814019,9.48232 2.020465,17.64214 1.41121,56.58762 -1.012036,64.69235 -0.645913,2.16029 -1.182318,2.6565 -3.801983,3.51706 -3.615475,1.18768 -18.331749,1.89238 -29.787464,1.42638 z m 20.661825,-40.23018 v -27.8533 L 72.8858,114.21401 c -1.010784,-0.27088 -22.922498,-0.27088 -23.933281,0 l -0.774818,0.20764 v 27.8533 27.8533 h 12.741458 12.741459 z"
     id="path6039"
     inkscape:connector-curvature="0" />
  <path
     style="fill:#0000e9;fill-opacity:0;stroke-width:0.34436375"
     d="m 52.998793,182.50513 c -11.32708,-0.46076 -15.551705,-1.24038 -16.961447,-3.1301 -0.332293,-0.44543 -0.825806,-1.89461 -1.096696,-3.22041 -2.501409,-12.24252 -2.501409,-55.59715 0,-67.83966 0.611076,-2.99076 1.235148,-3.8483 3.422684,-4.70313 5.880936,-2.2981 37.634295,-2.4588 44.422923,-0.22481 3.610751,1.18822 3.937948,1.83271 4.814019,9.48232 2.020465,17.64214 1.41121,56.58762 -1.012036,64.69235 -0.645913,2.16029 -1.182318,2.6565 -3.801983,3.51706 -3.615475,1.18768 -18.331749,1.89238 -29.787464,1.42638 z m 20.661825,-40.23018 v -27.8533 L 72.8858,114.21401 c -1.010784,-0.27088 -22.922498,-0.27088 -23.933281,0 l -0.774818,0.20764 v 27.8533 27.8533 h 12.741458 12.741459 z"
     id="path6041"
     inkscape:connector-curvature="0" />
  <path
     style="fill:#0000e9;fill-opacity:0;stroke-width:0.34436375"
     d="m 52.998793,182.50513 c -11.32708,-0.46076 -15.551705,-1.24038 -16.961447,-3.1301 -0.332293,-0.44543 -0.825806,-1.89461 -1.096696,-3.22041 -2.501409,-12.24252 -2.501409,-55.59715 0,-67.83966 0.611076,-2.99076 1.235148,-3.8483 3.422684,-4.70313 5.880936,-2.2981 37.634295,-2.4588 44.422923,-0.22481 3.610751,1.18822 3.937948,1.83271 4.814019,9.48232 2.020465,17.64214 1.41121,56.58762 -1.012036,64.69235 -0.645913,2.16029 -1.182318,2.6565 -3.801983,3.51706 -3.615475,1.18768 -18.331749,1.89238 -29.787464,1.42638 z m 20.661825,-40.23018 v -27.8533 L 72.8858,114.21401 c -1.010784,-0.27088 -22.922498,-0.27088 -23.933281,0 l -0.774818,0.20764 v 27.8533 27.8533 h 12.741458 12.741459 z"
     id="path6043"
     inkscape:connector-curvature="0" />
  <path
     style="fill:#0000e9;fill-opacity:0;stroke-width:0.34436375"
     d="m 52.998793,182.50513 c -11.32708,-0.46076 -15.551705,-1.24038 -16.961447,-3.1301 -0.332293,-0.44543 -0.825806,-1.89461 -1.096696,-3.22041 -2.501409,-12.24252 -2.501409,-55.59715 0,-67.83966 0.611076,-2.99076 1.235148,-3.8483 3.422684,-4.70313 5.880936,-2.2981 37.634295,-2.4588 44.422923,-0.22481 3.610751,1.18822 3.937948,1.83271 4.814019,9.48232 2.020465,17.64214 1.41121,56.58762 -1.012036,64.69235 -0.645913,2.16029 -1.182318,2.6565 -3.801983,3.51706 -3.615475,1.18768 -18.331749,1.89238 -29.787464,1.42638 z m 20.661825,-40.23018 v -27.8533 L 72.8858,114.21401 c -1.010784,-0.27088 -22.922498,-0.27088 -23.933281,0 l -0.774818,0.20764 v 27.8533 27.8533 h 12.741458 12.741459 z"
     id="path6045"
     inkscape:connector-curvature="0" />
</svg>
