<!-- This file is part of Nvidia Util Gnome Extension.

Nvidia Util Gnome Extension is free software: you can redistribute it and/or modify
it under the terms of the GNU General Public License as published by
the Free Software Foundation, either version 3 of the License, or
(at your option) any later version.

Nvidia Util Gnome Extension is distributed in the hope that it will be useful,
but WITHOUT ANY WARRANTY; without even the implied warranty of
MERCHANTABILITY or FITNESS FOR A PARTICULAR PURPOSE.  See the
GNU General Public License for more details.

You should have received a copy of the GNU General Public License
along with Nvidia Util Gnome Extension.  If not, see <http://www.gnu.org/licenses/>. -->

<?xml version="1.0" encoding="UTF-8" standalone="no"?>
<!-- Created with Inkscape (http://www.inkscape.org/) -->

<svg
   xmlns:dc="http://purl.org/dc/elements/1.1/"
   xmlns:cc="http://creativecommons.org/ns#"
   xmlns:rdf="http://www.w3.org/1999/02/22-rdf-syntax-ns#"
   xmlns:svg="http://www.w3.org/2000/svg"
   xmlns="http://www.w3.org/2000/svg"
   xmlns:sodipodi="http://sodipodi.sourceforge.net/DTD/sodipodi-0.dtd"
   xmlns:inkscape="http://www.inkscape.org/namespaces/inkscape"
   width="300"
   height="300"
   viewBox="0 0 79.375 79.375"
   version="1.1"
   id="svg35"
   sodipodi:docname="nvidia-card-symbolic.svg"
   inkscape:version="0.92.2 (unknown)">
  <defs
     id="defs29" />
  <sodipodi:namedview
     id="base"
     pagecolor="#ffffff"
     bordercolor="#666666"
     borderopacity="1.0"
     inkscape:pageopacity="0.0"
     inkscape:pageshadow="2"
     inkscape:zoom="1.979899"
     inkscape:cx="138.87733"
     inkscape:cy="148.44436"
     inkscape:document-units="mm"
     inkscape:current-layer="layer1"
     showgrid="false"
     inkscape:window-width="1920"
     inkscape:window-height="1016"
     inkscape:window-x="0"
     inkscape:window-y="27"
     inkscape:window-maximized="1"
     units="px" />
  <metadata
     id="metadata32">
    <rdf:RDF>
      <cc:Work
         rdf:about="">
        <dc:format>image/svg+xml</dc:format>
        <dc:type
           rdf:resource="http://purl.org/dc/dcmitype/StillImage" />
        <dc:title></dc:title>
      </cc:Work>
    </rdf:RDF>
  </metadata>
  <g
     inkscape:label="Layer 1"
     inkscape:groupmode="layer"
     id="layer1"
     transform="translate(-66.489796,-42.82141)">
    <path
       inkscape:connector-curvature="0"
       d="m 75.428414,77.581879 c 0,0 6.347576,-10.646794 20.676732,-12.073879 v -7.991063 c -15.871253,1.660953 -29.61535,19.177216 -29.61535,19.177216 0,0 7.784163,29.323677 29.61535,32.008667 V 99.402246 C 80.084229,96.775526 75.428414,77.581879 75.428414,77.581879 Z M 96.105146,90.780174 C 83.997104,87.967334 84.118529,79.121919 84.118529,79.121919 c 0,0 2.166689,-3.709807 11.821033,-5.070402 m 0.15403,-25.767122 v 9.232542 c 13.441168,-0.921613 25.056578,5.300933 28.050918,16.53458 0,0 -9.63483,16.894495 -23.70316,16.894495 -1.288722,0 -2.882419,0.261851 -4.016079,0 l -0.15403,8.450584 c 0.970389,0.15403 3.133228,-0.077 4.182169,-0.077 13.09127,0 20.40513,-8.171024 29.57222,-18.482032 1.51977,1.586507 8.57152,9.215086 9.85074,10.904792 -8.71631,9.509034 -29.0303,17.174314 -40.546863,17.174314 -1.109017,0 -2.176957,-0.077 -3.224104,-0.20537 v 8.02213 H 145.8648 V 48.292864 H 96.10566 Z M 95.939562,65.508 c 8.688318,-0.29009 12.736488,2.130744 18.098268,8.543517 0,0 -3.29932,3.566815 -6.54114,5.843632 -2.65522,-4.75875 -6.66026,-5.765078 -11.589473,-5.765078"
       style="fill:#000000;fill-opacity:1;fill-rule:nonzero;stroke-width:0;stroke-linecap:butt;stroke-linejoin:miter;stroke-miterlimit:10"
       id="path21"
       sodipodi:nodetypes="cccccccccccccsccsccscccccccccc" />
  </g>
</svg>
