<?xml version="1.0" encoding="UTF-8" standalone="no"?>
<!-- Created with Inkscape (http://www.inkscape.org/) -->

<svg
   xmlns:dc="http://purl.org/dc/elements/1.1/"
   xmlns:cc="http://creativecommons.org/ns#"
   xmlns:rdf="http://www.w3.org/1999/02/22-rdf-syntax-ns#"
   xmlns:svg="http://www.w3.org/2000/svg"
   xmlns="http://www.w3.org/2000/svg"
   xmlns:sodipodi="http://sodipodi.sourceforge.net/DTD/sodipodi-0.dtd"
   xmlns:inkscape="http://www.inkscape.org/namespaces/inkscape"
   version="1.1"
   id="Capa_1"
   x="0px"
   y="0px"
   viewBox="0 0 300 300"
   xml:space="preserve"
   sodipodi:docname="nvidia-temp-symbolic.svg"
   inkscape:version="0.92.2 (unknown)"
   width="300"
   height="300"><metadata
     id="metadata61"><rdf:RDF><cc:Work
         rdf:about=""><dc:format>image/svg+xml</dc:format><dc:type
           rdf:resource="http://purl.org/dc/dcmitype/StillImage" /><dc:title></dc:title></cc:Work></rdf:RDF></metadata><defs
     id="defs59" /><sodipodi:namedview
     pagecolor="#ffffff"
     bordercolor="#666666"
     borderopacity="1"
     objecttolerance="10"
     gridtolerance="10"
     guidetolerance="10"
     inkscape:pageopacity="0"
     inkscape:pageshadow="2"
     inkscape:window-width="1920"
     inkscape:window-height="1016"
     id="namedview57"
     showgrid="false"
     inkscape:zoom="0.96326533"
     inkscape:cx="82.527376"
     inkscape:cy="239.46766"
     inkscape:window-x="0"
     inkscape:window-y="27"
     inkscape:window-maximized="1"
     inkscape:current-layer="g24" /><g
     id="g24"
     transform="translate(0,-190)"><g
       id="g4"
       transform="matrix(0.61224441,0,0,0.6122449,-10.466811,190)"><path
         d="m 262.096,490 c -14.151,0 -27.883,-2.774 -40.818,-8.245 -12.487,-5.281 -23.7,-12.841 -33.326,-22.468 -9.626,-9.626 -17.185,-20.838 -22.468,-33.326 -5.47,-12.933 -8.244,-26.666 -8.244,-40.816 0,-16.766 4.058,-33.445 11.733,-48.233 6.607,-12.729 15.9,-24.11 27.054,-33.183 V 49.967 C 196.028,22.415 218.443,0 245.996,0 h 32.201 c 27.552,0 49.968,22.415 49.968,49.967 v 253.762 c 11.154,9.072 20.447,20.453 27.054,33.183 7.676,14.788 11.733,31.468 11.733,48.233 0,14.15 -2.773,27.884 -8.245,40.816 -5.282,12.488 -12.84,23.7 -22.467,33.326 -9.626,9.627 -20.839,17.186 -33.327,22.468 -12.932,5.471 -26.665,8.245 -40.817,8.245 z m -16.1,-469.422 c -16.205,0 -29.389,13.184 -29.389,29.389 V 308.78 c 0,3.281 -1.565,6.366 -4.213,8.304 -21.649,15.84 -34.574,41.283 -34.574,68.06 0,46.47 37.806,84.276 84.277,84.276 46.471,0 84.277,-37.807 84.277,-84.276 0,-26.777 -12.925,-52.221 -34.575,-68.06 -2.648,-1.938 -4.213,-5.023 -4.213,-8.304 V 49.967 c 0,-16.205 -13.184,-29.389 -29.389,-29.389 z"
         id="path2"
         inkscape:connector-curvature="0" /></g><path
       d="M 163.37571,388.9949 V 251.45408 c 0,-5.46 -4.42592,-9.88592 -9.8853,-9.88592 h -6.98082 c -5.45937,0 -9.88529,4.42592 -9.88529,9.88592 V 388.9949 c -15.03734,5.46551 -25.77855,19.88265 -25.77855,36.80877 0,21.62449 17.52978,39.1549 39.15425,39.1549 21.62447,0 39.15487,-17.53041 39.15487,-39.1549 -6.1e-4,-16.92612 -10.74122,-31.34326 -25.77916,-36.80877 z"
       id="path6"
       inkscape:connector-curvature="0"
       sodipodi:nodetypes="csssscsscc"
       style="stroke-width:0.6122449" /></g><g
     id="g26"
     transform="translate(0,-190)" /><g
     id="g28"
     transform="translate(0,-190)" /><g
     id="g30"
     transform="translate(0,-190)" /><g
     id="g32"
     transform="translate(0,-190)" /><g
     id="g34"
     transform="translate(0,-190)" /><g
     id="g36"
     transform="translate(0,-190)" /><g
     id="g38"
     transform="translate(0,-190)" /><g
     id="g40"
     transform="translate(0,-190)" /><g
     id="g42"
     transform="translate(0,-190)" /><g
     id="g44"
     transform="translate(0,-190)" /><g
     id="g46"
     transform="translate(0,-190)" /><g
     id="g48"
     transform="translate(0,-190)" /><g
     id="g50"
     transform="translate(0,-190)" /><g
     id="g52"
     transform="translate(0,-190)" /><g
     id="g54"
     transform="translate(0,-190)" /></svg>
