<?xml version="1.0" encoding="UTF-8" standalone="no"?>
<!-- Created with Inkscape (http://www.inkscape.org/) -->

<svg
   xmlns:dc="http://purl.org/dc/elements/1.1/"
   xmlns:cc="http://creativecommons.org/ns#"
   xmlns:rdf="http://www.w3.org/1999/02/22-rdf-syntax-ns#"
   xmlns:svg="http://www.w3.org/2000/svg"
   xmlns="http://www.w3.org/2000/svg"
   xmlns:sodipodi="http://sodipodi.sourceforge.net/DTD/sodipodi-0.dtd"
   xmlns:inkscape="http://www.inkscape.org/namespaces/inkscape"
   width="3.2mm"
   height="3.2mm"
   viewBox="0 0 3.2 3.2"
   version="1.1"
   id="svg35"
   sodipodi:docname="nvidia-card-symbolic.svg"
   inkscape:version="0.92.1 r15371">
  <defs
     id="defs29" />
  <sodipodi:namedview
     id="base"
     pagecolor="#ffffff"
     bordercolor="#666666"
     borderopacity="1.0"
     inkscape:pageopacity="0.0"
     inkscape:pageshadow="2"
     inkscape:zoom="22.4"
     inkscape:cx="8.5399635"
     inkscape:cy="-2.0547654"
     inkscape:document-units="mm"
     inkscape:current-layer="layer1"
     showgrid="false"
     inkscape:window-width="1920"
     inkscape:window-height="1016"
     inkscape:window-x="0"
     inkscape:window-y="27"
     inkscape:window-maximized="1" />
  <metadata
     id="metadata32">
    <rdf:RDF>
      <cc:Work
         rdf:about="">
        <dc:format>image/svg+xml</dc:format>
        <dc:type
           rdf:resource="http://purl.org/dc/dcmitype/StillImage" />
        <dc:title></dc:title>
      </cc:Work>
    </rdf:RDF>
  </metadata>
  <g
     inkscape:label="Layer 1"
     inkscape:groupmode="layer"
     id="layer1"
     transform="translate(-66.489796,-118.99641)">
    <path
       inkscape:connector-curvature="0"
       d="m 66.891986,120.40132 c 0,0 0.24726,-0.41473 0.80543,-0.47032 v -0.31128 c -0.61824,0.0647 -1.15362,0.74702 -1.15362,0.74702 0,0 0.30322,1.14226 1.15362,1.24685 v -0.36229 c -0.62407,-0.10232 -0.80543,-0.84998 -0.80543,-0.84998 z m 0.80543,0.51412 c -0.47165,-0.10957 -0.46692,-0.45413 -0.46692,-0.45413 0,0 0.0844,-0.14451 0.46047,-0.19751 m 0.006,-1.00372 v 0.35964 c 0.52358,-0.0359 0.97604,0.20649 1.09268,0.64408 0,0 -0.37531,0.6581 -0.92332,0.6581 -0.0502,0 -0.11228,0.0102 -0.15644,0 l -0.006,0.32918 c 0.0378,0.006 0.12205,-0.003 0.16291,-0.003 0.50995,0 0.79485,-0.31829 1.15194,-0.71994 0.0592,0.0618 0.33389,0.35896 0.38372,0.42478 -0.33953,0.37041 -1.13083,0.669 -1.57944,0.669 -0.0432,0 -0.0848,-0.003 -0.12559,-0.008 v 0.31249 h 1.9383 v -2.666 h -1.93829 z m -0.006,0.67092 c 0.33844,-0.0113 0.49613,0.083 0.70499,0.3328 0,0 -0.12852,0.13894 -0.2548,0.22763 -0.10343,-0.18537 -0.25944,-0.22457 -0.45145,-0.22457"
       style="fill:#74b71b;fill-opacity:1;fill-rule:nonzero;stroke-width:0;stroke-linecap:butt;stroke-linejoin:miter;stroke-miterlimit:10"
       id="path21"
       sodipodi:nodetypes="cccccccccccccsccsccscccccccccc" />
  </g>
</svg>
