<?xml version="1.0" encoding="UTF-8" standalone="no"?>
<!-- Created with Inkscape (http://www.inkscape.org/) -->

<svg
   xmlns:dc="http://purl.org/dc/elements/1.1/"
   xmlns:cc="http://creativecommons.org/ns#"
   xmlns:rdf="http://www.w3.org/1999/02/22-rdf-syntax-ns#"
   xmlns:svg="http://www.w3.org/2000/svg"
   xmlns="http://www.w3.org/2000/svg"
   xmlns:sodipodi="http://sodipodi.sourceforge.net/DTD/sodipodi-0.dtd"
   xmlns:inkscape="http://www.inkscape.org/namespaces/inkscape"
   width="300"
   height="300"
   viewBox="0 0 79.374998 79.375002"
   version="1.1"
   id="svg109"
   inkscape:version="0.92.2 (unknown)"
   sodipodi:docname="power-symbolic.svg">
  <defs
     id="defs103" />
  <sodipodi:namedview
     id="base"
     pagecolor="#ffffff"
     bordercolor="#666666"
     borderopacity="1.0"
     inkscape:pageopacity="0.0"
     inkscape:pageshadow="2"
     inkscape:zoom="1.979899"
     inkscape:cx="173.9328"
     inkscape:cy="151.54527"
     inkscape:document-units="mm"
     inkscape:current-layer="layer1"
     showgrid="false"
     units="px"
     inkscape:window-width="1920"
     inkscape:window-height="1016"
     inkscape:window-x="0"
     inkscape:window-y="27"
     inkscape:window-maximized="1" />
  <metadata
     id="metadata106">
    <rdf:RDF>
      <cc:Work
         rdf:about="">
        <dc:format>image/svg+xml</dc:format>
        <dc:type
           rdf:resource="http://purl.org/dc/dcmitype/StillImage" />
        <dc:title></dc:title>
      </cc:Work>
    </rdf:RDF>
  </metadata>
  <g
     inkscape:label="Layer 1"
     inkscape:groupmode="layer"
     id="layer1"
     transform="translate(0,-217.62498)">
    <g
       transform="matrix(0.00809949,0,0,-0.00809949,1.3724312,258.20342)"
       id="g10">
      <path
         inkscape:connector-curvature="0"
         d="m 5154.6,4986.9 c -7.7,-15.4 -572.8,-1089.2 -1256.1,-2389 L 2655.1,232 H 3490 c 667.9,0 832.3,-7.7 824.6,-33.4 -7.7,-30.8 -2288.8,-4467.2 -2478.9,-4821.6 l -89.9,-167 89.9,89.9 c 48.8,48.8 1382,1500.2 2959.3,3223.9 l 2869.4,3133.9 -1081.5,12.8 -1081.5,12.8 1060.9,1592.7 c 585.7,876 1084,1623.5 1107.1,1664.6 l 46.2,69.4 H 6444.1 c -770.6,0 -1279.3,-10.3 -1289.5,-23.1 z"
         id="path4" />
    </g>
  </g>
</svg>
